# xmcd
#
# Track frame offsets:
# 150
# 21198
# 41050
# 65207
# 83747
# 105051
# 122566
# 141403
# 158690
# 177880
# 200196
# 223191
# 244043
# 262828
#
# Disc length: 3703 seconds
#
# Revision: 0
# Processed by: cddbd v1.4PL0 Copyright (c) Steve Scherf et al.
# Submitted via: Axialis_AX_CDPlayer 2.6
#
DISCID=c40e750e
DTITLE=Faith Hill - Cry
DYEAR=1900
DGENRE=
TTITLE0=Free
TTITLE1=Cry
TTITLE2=One
TTITLE3=When The Lights Go Down
TTITLE4=Beautiful
TTITLE5=Unsaveable
TTITLE6=Baby You Belong
TTITLE7=If You're Gonna Fly Away
TTITLE8=Stronger
TTITLE9=If This Is The End
TTITLE10=This Is Me
TTITLE11=Back to You
TTITLE12=I Think I Will
TTITLE13=You're Still Here
EXTD=
EXTT0=
EXTT1=
EXTT2=
EXTT3=
EXTT4=
EXTT5=
EXTT6=
EXTT7=
EXTT8=
EXTT9=
EXTT10=
EXTT11=
EXTT12=
EXTT13=
PLAYORDER=
